<svg xmlns="http://www.w3.org/2000/svg" viewBox="0 0 1200 118" width="1200" height="118" role="img" aria-labelledby="mq-title mq-desc">
  <title id="mq-title">Skills marquee</title>
  <desc id="mq-desc">Two rows of scrolling tags: security research focus areas and the engineering stack.</desc>
  <defs>
    <linearGradient id="mq-fade" x1="0" y1="0" x2="1" y2="0">
      <stop stop-color="#0d1117"/>
      <stop offset=".07" stop-color="#0d1117" stop-opacity="0"/>
      <stop offset=".93" stop-color="#0d1117" stop-opacity="0"/>
      <stop offset="1" stop-color="#0d1117"/>
    </linearGradient>
    <clipPath id="mq-clip"><rect width="1200" height="118" rx="16"/></clipPath>
  </defs>
  <rect width="1200" height="118" rx="16" fill="#0d1117" stroke="#232c42"/>
  <g clip-path="url(#mq-clip)">
  <g transform="translate(0 18)"><g><animateTransform attributeName="transform" type="translate" from="0 0" to="-1373 0" dur="34s" repeatCount="indefinite"/><g><g transform="translate(0 0)"><rect width="141" height="34" rx="17" fill="#0d1322" stroke="#00f5d4" stroke-opacity=".38"/><circle cx="14" cy="17" r="3" fill="#00f5d4"/><text x="24" y="22" fill="#b9c4d6" font-family="ui-monospace, SFMono-Regular, Consolas, monospace" font-size="14">CVE research</text></g><g transform="translate(155 0)"><rect width="150" height="34" rx="17" fill="#0d1322" stroke="#00f5d4" stroke-opacity=".38"/><circle cx="14" cy="17" r="3" fill="#00f5d4"/><text x="24" y="22" fill="#b9c4d6" font-family="ui-monospace, SFMono-Regular, Consolas, monospace" font-size="14">GHSA advisory</text></g><g transform="translate(319 0)"><rect width="99" height="34" rx="17" fill="#0d1322" stroke="#00f5d4" stroke-opacity=".38"/><circle cx="14" cy="17" r="3" fill="#00f5d4"/><text x="24" y="22" fill="#b9c4d6" font-family="ui-monospace, SFMono-Regular, Consolas, monospace" font-size="14">fuzzing</text></g><g transform="translate(432 0)"><rect width="91" height="34" rx="17" fill="#0d1322" stroke="#00f5d4" stroke-opacity=".38"/><circle cx="14" cy="17" r="3" fill="#00f5d4"/><text x="24" y="22" fill="#b9c4d6" font-family="ui-monospace, SFMono-Regular, Consolas, monospace" font-size="14">CodeQL</text></g><g transform="translate(537 0)"><rect width="99" height="34" rx="17" fill="#0d1322" stroke="#00f5d4" stroke-opacity=".38"/><circle cx="14" cy="17" r="3" fill="#00f5d4"/><text x="24" y="22" fill="#b9c4d6" font-family="ui-monospace, SFMono-Regular, Consolas, monospace" font-size="14">Semgrep</text></g><g transform="translate(650 0)"><rect width="167" height="34" rx="17" fill="#0d1322" stroke="#00f5d4" stroke-opacity=".38"/><circle cx="14" cy="17" r="3" fill="#00f5d4"/><text x="24" y="22" fill="#b9c4d6" font-family="ui-monospace, SFMono-Regular, Consolas, monospace" font-size="14">threat modeling</text></g><g transform="translate(831 0)"><rect width="141" height="34" rx="17" fill="#0d1322" stroke="#00f5d4" stroke-opacity=".38"/><circle cx="14" cy="17" r="3" fill="#00f5d4"/><text x="24" y="22" fill="#b9c4d6" font-family="ui-monospace, SFMono-Regular, Consolas, monospace" font-size="14">supply chain</text></g><g transform="translate(986 0)"><rect width="133" height="34" rx="17" fill="#0d1322" stroke="#00f5d4" stroke-opacity=".38"/><circle cx="14" cy="17" r="3" fill="#00f5d4"/><text x="24" y="22" fill="#b9c4d6" font-family="ui-monospace, SFMono-Regular, Consolas, monospace" font-size="14">auth bypass</text></g><g transform="translate(1133 0)"><rect width="226" height="34" rx="17" fill="#0d1322" stroke="#00f5d4" stroke-opacity=".38"/><circle cx="14" cy="17" r="3" fill="#00f5d4"/><text x="24" y="22" fill="#b9c4d6" font-family="ui-monospace, SFMono-Regular, Consolas, monospace" font-size="14">responsible disclosure</text></g></g><g transform="translate(1373 0)"><g transform="translate(0 0)"><rect width="141" height="34" rx="17" fill="#0d1322" stroke="#00f5d4" stroke-opacity=".38"/><circle cx="14" cy="17" r="3" fill="#00f5d4"/><text x="24" y="22" fill="#b9c4d6" font-family="ui-monospace, SFMono-Regular, Consolas, monospace" font-size="14">CVE research</text></g><g transform="translate(155 0)"><rect width="150" height="34" rx="17" fill="#0d1322" stroke="#00f5d4" stroke-opacity=".38"/><circle cx="14" cy="17" r="3" fill="#00f5d4"/><text x="24" y="22" fill="#b9c4d6" font-family="ui-monospace, SFMono-Regular, Consolas, monospace" font-size="14">GHSA advisory</text></g><g transform="translate(319 0)"><rect width="99" height="34" rx="17" fill="#0d1322" stroke="#00f5d4" stroke-opacity=".38"/><circle cx="14" cy="17" r="3" fill="#00f5d4"/><text x="24" y="22" fill="#b9c4d6" font-family="ui-monospace, SFMono-Regular, Consolas, monospace" font-size="14">fuzzing</text></g><g transform="translate(432 0)"><rect width="91" height="34" rx="17" fill="#0d1322" stroke="#00f5d4" stroke-opacity=".38"/><circle cx="14" cy="17" r="3" fill="#00f5d4"/><text x="24" y="22" fill="#b9c4d6" font-family="ui-monospace, SFMono-Regular, Consolas, monospace" font-size="14">CodeQL</text></g><g transform="translate(537 0)"><rect width="99" height="34" rx="17" fill="#0d1322" stroke="#00f5d4" stroke-opacity=".38"/><circle cx="14" cy="17" r="3" fill="#00f5d4"/><text x="24" y="22" fill="#b9c4d6" font-family="ui-monospace, SFMono-Regular, Consolas, monospace" font-size="14">Semgrep</text></g><g transform="translate(650 0)"><rect width="167" height="34" rx="17" fill="#0d1322" stroke="#00f5d4" stroke-opacity=".38"/><circle cx="14" cy="17" r="3" fill="#00f5d4"/><text x="24" y="22" fill="#b9c4d6" font-family="ui-monospace, SFMono-Regular, Consolas, monospace" font-size="14">threat modeling</text></g><g transform="translate(831 0)"><rect width="141" height="34" rx="17" fill="#0d1322" stroke="#00f5d4" stroke-opacity=".38"/><circle cx="14" cy="17" r="3" fill="#00f5d4"/><text x="24" y="22" fill="#b9c4d6" font-family="ui-monospace, SFMono-Regular, Consolas, monospace" font-size="14">supply chain</text></g><g transform="translate(986 0)"><rect width="133" height="34" rx="17" fill="#0d1322" stroke="#00f5d4" stroke-opacity=".38"/><circle cx="14" cy="17" r="3" fill="#00f5d4"/><text x="24" y="22" fill="#b9c4d6" font-family="ui-monospace, SFMono-Regular, Consolas, monospace" font-size="14">auth bypass</text></g><g transform="translate(1133 0)"><rect width="226" height="34" rx="17" fill="#0d1322" stroke="#00f5d4" stroke-opacity=".38"/><circle cx="14" cy="17" r="3" fill="#00f5d4"/><text x="24" y="22" fill="#b9c4d6" font-family="ui-monospace, SFMono-Regular, Consolas, monospace" font-size="14">responsible disclosure</text></g></g><g transform="translate(2746 0)"><g transform="translate(0 0)"><rect width="141" height="34" rx="17" fill="#0d1322" stroke="#00f5d4" stroke-opacity=".38"/><circle cx="14" cy="17" r="3" fill="#00f5d4"/><text x="24" y="22" fill="#b9c4d6" font-family="ui-monospace, SFMono-Regular, Consolas, monospace" font-size="14">CVE research</text></g><g transform="translate(155 0)"><rect width="150" height="34" rx="17" fill="#0d1322" stroke="#00f5d4" stroke-opacity=".38"/><circle cx="14" cy="17" r="3" fill="#00f5d4"/><text x="24" y="22" fill="#b9c4d6" font-family="ui-monospace, SFMono-Regular, Consolas, monospace" font-size="14">GHSA advisory</text></g><g transform="translate(319 0)"><rect width="99" height="34" rx="17" fill="#0d1322" stroke="#00f5d4" stroke-opacity=".38"/><circle cx="14" cy="17" r="3" fill="#00f5d4"/><text x="24" y="22" fill="#b9c4d6" font-family="ui-monospace, SFMono-Regular, Consolas, monospace" font-size="14">fuzzing</text></g><g transform="translate(432 0)"><rect width="91" height="34" rx="17" fill="#0d1322" stroke="#00f5d4" stroke-opacity=".38"/><circle cx="14" cy="17" r="3" fill="#00f5d4"/><text x="24" y="22" fill="#b9c4d6" font-family="ui-monospace, SFMono-Regular, Consolas, monospace" font-size="14">CodeQL</text></g><g transform="translate(537 0)"><rect width="99" height="34" rx="17" fill="#0d1322" stroke="#00f5d4" stroke-opacity=".38"/><circle cx="14" cy="17" r="3" fill="#00f5d4"/><text x="24" y="22" fill="#b9c4d6" font-family="ui-monospace, SFMono-Regular, Consolas, monospace" font-size="14">Semgrep</text></g><g transform="translate(650 0)"><rect width="167" height="34" rx="17" fill="#0d1322" stroke="#00f5d4" stroke-opacity=".38"/><circle cx="14" cy="17" r="3" fill="#00f5d4"/><text x="24" y="22" fill="#b9c4d6" font-family="ui-monospace, SFMono-Regular, Consolas, monospace" font-size="14">threat modeling</text></g><g transform="translate(831 0)"><rect width="141" height="34" rx="17" fill="#0d1322" stroke="#00f5d4" stroke-opacity=".38"/><circle cx="14" cy="17" r="3" fill="#00f5d4"/><text x="24" y="22" fill="#b9c4d6" font-family="ui-monospace, SFMono-Regular, Consolas, monospace" font-size="14">supply chain</text></g><g transform="translate(986 0)"><rect width="133" height="34" rx="17" fill="#0d1322" stroke="#00f5d4" stroke-opacity=".38"/><circle cx="14" cy="17" r="3" fill="#00f5d4"/><text x="24" y="22" fill="#b9c4d6" font-family="ui-monospace, SFMono-Regular, Consolas, monospace" font-size="14">auth bypass</text></g><g transform="translate(1133 0)"><rect width="226" height="34" rx="17" fill="#0d1322" stroke="#00f5d4" stroke-opacity=".38"/><circle cx="14" cy="17" r="3" fill="#00f5d4"/><text x="24" y="22" fill="#b9c4d6" font-family="ui-monospace, SFMono-Regular, Consolas, monospace" font-size="14">responsible disclosure</text></g></g></g></g>
  <g transform="translate(0 66)"><g><animateTransform attributeName="transform" type="translate" from="-1411 0" to="0 0" dur="40s" repeatCount="indefinite"/><g><g transform="translate(0 0)"><rect width="57" height="34" rx="17" fill="#0d1322" stroke="#3a86ff" stroke-opacity=".38"/><circle cx="14" cy="17" r="3" fill="#3a86ff"/><text x="24" y="22" fill="#b9c4d6" font-family="ui-monospace, SFMono-Regular, Consolas, monospace" font-size="14">Go</text></g><g transform="translate(71 0)"><rect width="91" height="34" rx="17" fill="#0d1322" stroke="#3a86ff" stroke-opacity=".38"/><circle cx="14" cy="17" r="3" fill="#3a86ff"/><text x="24" y="22" fill="#b9c4d6" font-family="ui-monospace, SFMono-Regular, Consolas, monospace" font-size="14">Python</text></g><g transform="translate(176 0)"><rect width="99" height="34" rx="17" fill="#0d1322" stroke="#3a86ff" stroke-opacity=".38"/><circle cx="14" cy="17" r="3" fill="#3a86ff"/><text x="24" y="22" fill="#b9c4d6" font-family="ui-monospace, SFMono-Regular, Consolas, monospace" font-size="14">C#/.NET</text></g><g transform="translate(289 0)"><rect width="74" height="34" rx="17" fill="#0d1322" stroke="#3a86ff" stroke-opacity=".38"/><circle cx="14" cy="17" r="3" fill="#3a86ff"/><text x="24" y="22" fill="#b9c4d6" font-family="ui-monospace, SFMono-Regular, Consolas, monospace" font-size="14">Rust</text></g><g transform="translate(377 0)"><rect width="125" height="34" rx="17" fill="#0d1322" stroke="#3a86ff" stroke-opacity=".38"/><circle cx="14" cy="17" r="3" fill="#3a86ff"/><text x="24" y="22" fill="#b9c4d6" font-family="ui-monospace, SFMono-Regular, Consolas, monospace" font-size="14">TypeScript</text></g><g transform="translate(516 0)"><rect width="125" height="34" rx="17" fill="#0d1322" stroke="#3a86ff" stroke-opacity=".38"/><circle cx="14" cy="17" r="3" fill="#3a86ff"/><text x="24" y="22" fill="#b9c4d6" font-family="ui-monospace, SFMono-Regular, Consolas, monospace" font-size="14">Kubernetes</text></g><g transform="translate(655 0)"><rect width="91" height="34" rx="17" fill="#0d1322" stroke="#3a86ff" stroke-opacity=".38"/><circle cx="14" cy="17" r="3" fill="#3a86ff"/><text x="24" y="22" fill="#b9c4d6" font-family="ui-monospace, SFMono-Regular, Consolas, monospace" font-size="14">Docker</text></g><g transform="translate(760 0)"><rect width="74" height="34" rx="17" fill="#0d1322" stroke="#3a86ff" stroke-opacity=".38"/><circle cx="14" cy="17" r="3" fill="#3a86ff"/><text x="24" y="22" fill="#b9c4d6" font-family="ui-monospace, SFMono-Regular, Consolas, monospace" font-size="14">Helm</text></g><g transform="translate(848 0)"><rect width="158" height="34" rx="17" fill="#0d1322" stroke="#3a86ff" stroke-opacity=".38"/><circle cx="14" cy="17" r="3" fill="#3a86ff"/><text x="24" y="22" fill="#b9c4d6" font-family="ui-monospace, SFMono-Regular, Consolas, monospace" font-size="14">GitHub Actions</text></g><g transform="translate(1020 0)"><rect width="150" height="34" rx="17" fill="#0d1322" stroke="#3a86ff" stroke-opacity=".38"/><circle cx="14" cy="17" r="3" fill="#3a86ff"/><text x="24" y="22" fill="#b9c4d6" font-family="ui-monospace, SFMono-Regular, Consolas, monospace" font-size="14">OpenTelemetry</text></g><g transform="translate(1184 0)"><rect width="74" height="34" rx="17" fill="#0d1322" stroke="#3a86ff" stroke-opacity=".38"/><circle cx="14" cy="17" r="3" fill="#3a86ff"/><text x="24" y="22" fill="#b9c4d6" font-family="ui-monospace, SFMono-Regular, Consolas, monospace" font-size="14">gRPC</text></g><g transform="translate(1272 0)"><rect width="125" height="34" rx="17" fill="#0d1322" stroke="#3a86ff" stroke-opacity=".38"/><circle cx="14" cy="17" r="3" fill="#3a86ff"/><text x="24" y="22" fill="#b9c4d6" font-family="ui-monospace, SFMono-Regular, Consolas, monospace" font-size="14">PostgreSQL</text></g></g><g transform="translate(1411 0)"><g transform="translate(0 0)"><rect width="57" height="34" rx="17" fill="#0d1322" stroke="#3a86ff" stroke-opacity=".38"/><circle cx="14" cy="17" r="3" fill="#3a86ff"/><text x="24" y="22" fill="#b9c4d6" font-family="ui-monospace, SFMono-Regular, Consolas, monospace" font-size="14">Go</text></g><g transform="translate(71 0)"><rect width="91" height="34" rx="17" fill="#0d1322" stroke="#3a86ff" stroke-opacity=".38"/><circle cx="14" cy="17" r="3" fill="#3a86ff"/><text x="24" y="22" fill="#b9c4d6" font-family="ui-monospace, SFMono-Regular, Consolas, monospace" font-size="14">Python</text></g><g transform="translate(176 0)"><rect width="99" height="34" rx="17" fill="#0d1322" stroke="#3a86ff" stroke-opacity=".38"/><circle cx="14" cy="17" r="3" fill="#3a86ff"/><text x="24" y="22" fill="#b9c4d6" font-family="ui-monospace, SFMono-Regular, Consolas, monospace" font-size="14">C#/.NET</text></g><g transform="translate(289 0)"><rect width="74" height="34" rx="17" fill="#0d1322" stroke="#3a86ff" stroke-opacity=".38"/><circle cx="14" cy="17" r="3" fill="#3a86ff"/><text x="24" y="22" fill="#b9c4d6" font-family="ui-monospace, SFMono-Regular, Consolas, monospace" font-size="14">Rust</text></g><g transform="translate(377 0)"><rect width="125" height="34" rx="17" fill="#0d1322" stroke="#3a86ff" stroke-opacity=".38"/><circle cx="14" cy="17" r="3" fill="#3a86ff"/><text x="24" y="22" fill="#b9c4d6" font-family="ui-monospace, SFMono-Regular, Consolas, monospace" font-size="14">TypeScript</text></g><g transform="translate(516 0)"><rect width="125" height="34" rx="17" fill="#0d1322" stroke="#3a86ff" stroke-opacity=".38"/><circle cx="14" cy="17" r="3" fill="#3a86ff"/><text x="24" y="22" fill="#b9c4d6" font-family="ui-monospace, SFMono-Regular, Consolas, monospace" font-size="14">Kubernetes</text></g><g transform="translate(655 0)"><rect width="91" height="34" rx="17" fill="#0d1322" stroke="#3a86ff" stroke-opacity=".38"/><circle cx="14" cy="17" r="3" fill="#3a86ff"/><text x="24" y="22" fill="#b9c4d6" font-family="ui-monospace, SFMono-Regular, Consolas, monospace" font-size="14">Docker</text></g><g transform="translate(760 0)"><rect width="74" height="34" rx="17" fill="#0d1322" stroke="#3a86ff" stroke-opacity=".38"/><circle cx="14" cy="17" r="3" fill="#3a86ff"/><text x="24" y="22" fill="#b9c4d6" font-family="ui-monospace, SFMono-Regular, Consolas, monospace" font-size="14">Helm</text></g><g transform="translate(848 0)"><rect width="158" height="34" rx="17" fill="#0d1322" stroke="#3a86ff" stroke-opacity=".38"/><circle cx="14" cy="17" r="3" fill="#3a86ff"/><text x="24" y="22" fill="#b9c4d6" font-family="ui-monospace, SFMono-Regular, Consolas, monospace" font-size="14">GitHub Actions</text></g><g transform="translate(1020 0)"><rect width="150" height="34" rx="17" fill="#0d1322" stroke="#3a86ff" stroke-opacity=".38"/><circle cx="14" cy="17" r="3" fill="#3a86ff"/><text x="24" y="22" fill="#b9c4d6" font-family="ui-monospace, SFMono-Regular, Consolas, monospace" font-size="14">OpenTelemetry</text></g><g transform="translate(1184 0)"><rect width="74" height="34" rx="17" fill="#0d1322" stroke="#3a86ff" stroke-opacity=".38"/><circle cx="14" cy="17" r="3" fill="#3a86ff"/><text x="24" y="22" fill="#b9c4d6" font-family="ui-monospace, SFMono-Regular, Consolas, monospace" font-size="14">gRPC</text></g><g transform="translate(1272 0)"><rect width="125" height="34" rx="17" fill="#0d1322" stroke="#3a86ff" stroke-opacity=".38"/><circle cx="14" cy="17" r="3" fill="#3a86ff"/><text x="24" y="22" fill="#b9c4d6" font-family="ui-monospace, SFMono-Regular, Consolas, monospace" font-size="14">PostgreSQL</text></g></g><g transform="translate(2822 0)"><g transform="translate(0 0)"><rect width="57" height="34" rx="17" fill="#0d1322" stroke="#3a86ff" stroke-opacity=".38"/><circle cx="14" cy="17" r="3" fill="#3a86ff"/><text x="24" y="22" fill="#b9c4d6" font-family="ui-monospace, SFMono-Regular, Consolas, monospace" font-size="14">Go</text></g><g transform="translate(71 0)"><rect width="91" height="34" rx="17" fill="#0d1322" stroke="#3a86ff" stroke-opacity=".38"/><circle cx="14" cy="17" r="3" fill="#3a86ff"/><text x="24" y="22" fill="#b9c4d6" font-family="ui-monospace, SFMono-Regular, Consolas, monospace" font-size="14">Python</text></g><g transform="translate(176 0)"><rect width="99" height="34" rx="17" fill="#0d1322" stroke="#3a86ff" stroke-opacity=".38"/><circle cx="14" cy="17" r="3" fill="#3a86ff"/><text x="24" y="22" fill="#b9c4d6" font-family="ui-monospace, SFMono-Regular, Consolas, monospace" font-size="14">C#/.NET</text></g><g transform="translate(289 0)"><rect width="74" height="34" rx="17" fill="#0d1322" stroke="#3a86ff" stroke-opacity=".38"/><circle cx="14" cy="17" r="3" fill="#3a86ff"/><text x="24" y="22" fill="#b9c4d6" font-family="ui-monospace, SFMono-Regular, Consolas, monospace" font-size="14">Rust</text></g><g transform="translate(377 0)"><rect width="125" height="34" rx="17" fill="#0d1322" stroke="#3a86ff" stroke-opacity=".38"/><circle cx="14" cy="17" r="3" fill="#3a86ff"/><text x="24" y="22" fill="#b9c4d6" font-family="ui-monospace, SFMono-Regular, Consolas, monospace" font-size="14">TypeScript</text></g><g transform="translate(516 0)"><rect width="125" height="34" rx="17" fill="#0d1322" stroke="#3a86ff" stroke-opacity=".38"/><circle cx="14" cy="17" r="3" fill="#3a86ff"/><text x="24" y="22" fill="#b9c4d6" font-family="ui-monospace, SFMono-Regular, Consolas, monospace" font-size="14">Kubernetes</text></g><g transform="translate(655 0)"><rect width="91" height="34" rx="17" fill="#0d1322" stroke="#3a86ff" stroke-opacity=".38"/><circle cx="14" cy="17" r="3" fill="#3a86ff"/><text x="24" y="22" fill="#b9c4d6" font-family="ui-monospace, SFMono-Regular, Consolas, monospace" font-size="14">Docker</text></g><g transform="translate(760 0)"><rect width="74" height="34" rx="17" fill="#0d1322" stroke="#3a86ff" stroke-opacity=".38"/><circle cx="14" cy="17" r="3" fill="#3a86ff"/><text x="24" y="22" fill="#b9c4d6" font-family="ui-monospace, SFMono-Regular, Consolas, monospace" font-size="14">Helm</text></g><g transform="translate(848 0)"><rect width="158" height="34" rx="17" fill="#0d1322" stroke="#3a86ff" stroke-opacity=".38"/><circle cx="14" cy="17" r="3" fill="#3a86ff"/><text x="24" y="22" fill="#b9c4d6" font-family="ui-monospace, SFMono-Regular, Consolas, monospace" font-size="14">GitHub Actions</text></g><g transform="translate(1020 0)"><rect width="150" height="34" rx="17" fill="#0d1322" stroke="#3a86ff" stroke-opacity=".38"/><circle cx="14" cy="17" r="3" fill="#3a86ff"/><text x="24" y="22" fill="#b9c4d6" font-family="ui-monospace, SFMono-Regular, Consolas, monospace" font-size="14">OpenTelemetry</text></g><g transform="translate(1184 0)"><rect width="74" height="34" rx="17" fill="#0d1322" stroke="#3a86ff" stroke-opacity=".38"/><circle cx="14" cy="17" r="3" fill="#3a86ff"/><text x="24" y="22" fill="#b9c4d6" font-family="ui-monospace, SFMono-Regular, Consolas, monospace" font-size="14">gRPC</text></g><g transform="translate(1272 0)"><rect width="125" height="34" rx="17" fill="#0d1322" stroke="#3a86ff" stroke-opacity=".38"/><circle cx="14" cy="17" r="3" fill="#3a86ff"/><text x="24" y="22" fill="#b9c4d6" font-family="ui-monospace, SFMono-Regular, Consolas, monospace" font-size="14">PostgreSQL</text></g></g></g></g>
  <rect width="1200" height="118" fill="url(#mq-fade)"/>
  </g>
</svg>
